<?xml version="1.0" encoding="utf-8"?>
<!-- Generator: Adobe Illustrator 15.0.2, SVG Export Plug-In . SVG Version: 6.00 Build 0)  -->
<svg version="1.2" baseProfile="tiny" id="White" xmlns="http://www.w3.org/2000/svg" xmlns:xlink="http://www.w3.org/1999/xlink"
	 x="0px" y="0px" width="48px" height="32px" viewBox="0 0 48 32" xml:space="preserve">
<path fill="#FFFFFF" d="M9.214,19.6c0.344-0.258,0.713-0.48,1.097-0.68c1.231-1.662,2.692-3.143,4.334-4.399
	C13.829,14.187,12.937,14,12,14c-3.214,0-5.916,2.169-6.737,5.121C5.664,19.043,6.077,19,6.5,19C7.47,19,8.387,19.219,9.214,19.6z"
	/>
<path fill="#FFFFFF" d="M47.871,29.78C46.749,19.644,38.206,12,28,12c-5.581,0-10.653,2.296-14.298,6.025
	C13.803,18.021,13.898,18,14,18c2.963,0,5.543,1.614,6.926,4.008C20.951,22.007,20.975,22,21,22c2.76,0,5,2.238,5,5
	c0,0.196-0.021,0.388-0.043,0.578c0-0.001,0-0.002,0-0.002C25.743,25.569,24.063,24,22,24c-0.797,0-1.536,0.239-2.16,0.642
	C19.224,21.983,16.846,20,14,20c-1.83,0-3.466,0.822-4.566,2.113C8.644,21.429,7.626,21,6.5,21C4.016,21,2,23.015,2,25.5
	c0,0.012,0.003,0.022,0.003,0.034c-0.69,0.618-1.23,1.396-1.578,2.271C0.156,28.484,0,29.223,0,30v2h45.883
	c0.568,0,1.11-0.242,1.49-0.666C47.752,30.91,47.934,30.346,47.871,29.78z"/>
<path fill="#FFFFFF" d="M40,0H16c-0.682,0-1.317,0.348-1.685,0.922c-0.368,0.575-0.417,1.297-0.131,1.916l3.488,7.559
	c0.336,0.728,1.057,1.163,1.816,1.163c0.236,0,0.476-0.042,0.709-0.131C22.695,10.48,25.32,10,28,10s5.305,0.48,7.802,1.428
	c0.233,0.089,0.474,0.131,0.71,0.131c0.759,0,1.48-0.435,1.816-1.163l3.488-7.559c0.285-0.619,0.236-1.341-0.132-1.916
	C41.317,0.348,40.682,0,40,0L40,0z"/>
</svg>
